<svg width="120" height="55" viewBox="0 0 120 55" fill="none" xmlns="http://www.w3.org/2000/svg">
<path d="M0 0H120V42.2769C120 49.2782 114.324 54.9538 107.323 54.9538H12.6769C5.67565 54.9538 0 49.2782 0 42.2769V0Z" fill="#F51047"/>
<path d="M101.147 22.0157C102.353 22.5813 103.354 23.5127 104.007 24.6762C104.655 25.9096 104.996 27.2847 104.996 28.6791C104.996 28.7598 104.995 28.8436 104.993 28.9232V36.8341L104.584 37.656L103.829 38.0289H101.915L101.089 37.613L100.492 36.8644V35.3507C99.9702 36.2132 99.1945 36.9196 98.2856 37.3527C97.3236 37.7926 96.2748 38.0221 95.216 38.0221C95.1627 38.0221 95.1077 38.0212 95.0554 38.0204C95.0073 38.0212 94.9568 38.0221 94.908 38.0221C93.9097 38.0221 92.9245 37.7892 92.0307 37.3438C90.3543 36.5173 89.292 34.8068 89.292 32.9349C89.292 32.9067 89.2925 32.8779 89.2925 32.8502C89.2928 32.8278 89.2923 32.8036 89.2923 32.7804C89.2923 31.8723 89.5474 30.9819 90.0275 30.2122C90.5409 29.417 91.2689 28.7829 92.126 28.3838C93.0674 27.952 94.0944 27.7284 95.1299 27.7284C95.1775 27.7284 95.227 27.7293 95.2737 27.7302C97.5828 27.7302 99.3092 28.4828 100.453 29.9884V29.3485C100.453 29.3305 100.453 29.3106 100.453 29.2925C100.453 28.442 100.212 27.608 99.759 26.8894C99.3116 26.222 98.6758 25.7015 97.9343 25.3942C97.1386 25.0647 96.2848 24.8945 95.4239 24.8945C95.3791 24.8945 95.3317 24.8953 95.2877 24.896C93.8245 24.8995 92.4037 25.3281 91.1915 26.1138C90.611 26.4899 90.0866 26.0659 90.0866 25.6271C90.0866 24.9297 89.8571 23.2337 90.5088 22.8572C92.2597 21.8449 94.3736 21.1083 96.4047 21.1083C96.4783 21.1083 96.5573 21.1097 96.6297 21.1109C96.712 21.1086 96.7982 21.1074 96.882 21.1074C98.3408 21.1074 99.819 21.412 101.147 22.0157ZM98.7053 34.761C99.2056 34.5765 99.6491 34.2599 99.9873 33.8468C100.282 33.4943 100.444 33.0491 100.444 32.5895C100.444 32.5834 100.444 32.577 100.444 32.5712C100.444 32.5675 100.444 32.5636 100.444 32.5599C100.444 32.1202 100.29 31.6938 100.01 31.3551C99.6784 30.9684 99.2499 30.6763 98.7689 30.5095C98.2012 30.307 97.6011 30.2025 96.9977 30.2025C96.9706 30.2025 96.943 30.2032 96.9167 30.2032C96.8856 30.2027 96.8523 30.2022 96.8208 30.2022C96.2505 30.2022 95.6842 30.3069 95.1511 30.5097C94.7014 30.6797 94.3091 30.975 94.0197 31.3596C93.7645 31.7126 93.6269 32.138 93.6269 32.5741C93.6269 32.5867 93.627 32.5999 93.627 32.6123C93.6274 32.6223 93.627 32.6329 93.627 32.6431C93.627 33.0871 93.7607 33.521 94.0104 33.8876C94.2911 34.2764 94.6779 34.5767 95.1235 34.7517C95.6393 34.9547 96.1895 35.0592 96.7439 35.0592C96.7785 35.0592 96.8142 35.0587 96.8482 35.0582C96.8767 35.058 96.9072 35.0587 96.9367 35.0587C97.539 35.0587 98.1416 34.9728 98.7053 34.761Z" fill="white"/>
<path d="M102.439 38.0292H101.351C100.898 38.0246 100.511 37.9343 100.431 37.439L100.432 36.5684H102.439V38.0292Z" fill="white"/>
<path d="M102.865 38.0292H103.986C104.453 38.0246 104.852 37.9343 104.935 37.439L104.933 36.5684H102.865V38.0292Z" fill="white"/>
<path d="M18.5188 37.5165C15.5263 36.5314 15.0958 36.6836 15.0086 35.2221L15.0083 33.586C15.028 32.919 15.3515 32.6121 16.0304 33.0432C16.765 33.5097 17.5131 33.8148 18.3441 34.0773C19.6023 34.4746 20.914 34.6908 22.2343 34.6939C22.3112 34.6977 22.3907 34.7 22.4688 34.7C23.1586 34.7 23.839 34.5403 24.4566 34.234C24.9129 33.9983 25.2003 33.5288 25.2027 33.0159C25.2024 33.0105 25.2026 33.0043 25.2026 32.9987C25.2026 32.6422 25.0676 32.2982 24.825 32.0367C24.4039 31.6731 23.8913 31.4298 23.3432 31.3334L19.8495 30.5059C18.1371 30.083 16.9036 29.5037 16.1671 28.7544C15.431 28.0393 15.0081 27.0637 15.0081 26.0383C15.0081 26.0164 15.0086 25.9933 15.0086 25.9719C15.0086 25.9616 15.0086 25.9512 15.0086 25.9408C15.0086 25.0229 15.343 24.1272 15.9369 23.4273C16.631 22.6344 17.5289 22.0442 18.5325 21.7216C19.7333 21.3164 20.9958 21.1079 22.2639 21.1079C22.342 21.1079 22.4243 21.1093 22.501 21.1107C22.5687 21.1103 22.6441 21.1086 22.7146 21.1086C23.9072 21.1086 25.7998 21.3765 26.9444 21.7087C28.9671 22.2958 29.1117 22.3832 29.1771 23.702L29.152 25.2733C29.1346 25.6999 28.6874 25.9436 28.0626 25.6344C27.4508 25.3315 26.983 25.135 26.3301 24.9349C25.2523 24.6043 24.1265 24.4337 22.998 24.4337C22.9801 24.4337 22.9608 24.4337 22.9427 24.4337C22.8425 24.4284 22.7405 24.4257 22.64 24.4257C21.9265 24.4257 21.2193 24.5634 20.5582 24.8294C20.0958 25.0028 19.7842 25.4393 19.7712 25.9325C19.7756 26.3132 19.9826 26.6638 20.3143 26.8518C20.8749 27.1549 21.4855 27.3676 22.1142 27.4769L25.2443 28.1618C26.5562 28.3619 27.7935 28.9132 28.8205 29.7524C29.6012 30.5054 30.0426 31.5438 30.0426 32.6283C30.0426 32.7068 30.0402 32.7861 30.0358 32.8641C30.0356 32.89 30.0362 32.9183 30.0362 32.9445C30.0362 33.8916 29.7286 34.8136 29.1609 35.5716C28.5024 36.4056 27.6164 37.0349 26.6112 37.3829C25.4117 37.8096 24.1457 38.0294 22.8717 38.0294C22.7889 38.0294 22.7019 38.028 22.6205 38.0266C22.5647 38.0257 22.4992 38.0276 22.4415 38.0276C21.1188 38.0276 19.7978 37.8544 18.5198 37.5172L18.5188 37.5165Z" fill="white"/>
<path d="M37.0109 36.8979C35.6549 36.2015 34.5203 35.1372 33.7411 33.8292C32.9949 32.5522 32.5998 31.0965 32.5998 29.6172C32.5998 29.5794 32.6008 29.5406 32.6008 29.5038C32.6007 29.4626 32.5996 29.4182 32.5996 29.3759C32.5996 27.9053 32.9947 26.4591 33.7416 25.1922C34.5231 23.9051 35.6583 22.8648 37.0114 22.1973C38.4783 21.4812 40.0941 21.1074 41.7296 21.1074C41.8108 21.1074 41.8933 21.1088 41.9733 21.11C42.0531 21.1088 42.1388 21.1074 42.2203 21.1074C43.8587 21.1074 45.4775 21.4801 46.9489 22.1968C48.3011 22.8627 49.434 23.9044 50.2103 25.1929C50.9539 26.4596 51.3471 27.9048 51.3471 29.3743C51.3471 29.4168 51.3461 29.4622 51.3461 29.5037C51.3459 29.539 51.3469 29.5761 51.3469 29.6122C51.3469 31.0956 50.9541 32.5545 50.21 33.838C49.4391 35.1492 48.3066 36.2152 46.9493 36.9071C45.4768 37.6435 43.8511 38.0285 42.2032 38.0285C42.1271 38.0285 42.0482 38.0273 41.9735 38.0259C41.8954 38.0277 41.8153 38.0289 41.7365 38.0289C40.0941 38.0289 38.4746 37.6409 37.0115 36.8981L37.0109 36.8979ZM44.4473 33.7099C45.1387 33.3178 45.7035 32.7112 46.0713 32.008C46.4459 31.2792 46.6425 30.4696 46.6425 29.65C46.6425 29.6153 46.6418 29.5794 46.6413 29.5453C46.6414 29.521 46.6421 29.4936 46.6421 29.4686C46.6421 28.6509 46.4495 27.8439 46.0807 27.1142C45.7162 26.4149 45.1518 25.8364 44.4615 25.4539C43.6908 25.0658 42.8372 24.8628 41.9735 24.8628C41.1097 24.8628 40.2561 25.0658 39.4852 25.4541C38.7932 25.836 38.2281 26.4149 37.8621 27.1141C37.4869 27.8401 37.2905 28.6464 37.2905 29.4634C37.2905 29.4979 37.2912 29.5342 37.2918 29.568C37.2912 29.6023 37.2905 29.6382 37.2905 29.6729C37.2905 30.4925 37.4871 31.3021 37.8621 32.0311C38.2295 32.7341 38.7941 33.3178 39.4854 33.7098C40.2516 34.1076 41.1028 34.3157 41.9665 34.3157C42.8302 34.3157 43.6814 34.1076 44.4473 33.7099Z" fill="white"/>
<path fill-rule="evenodd" clip-rule="evenodd" d="M58.5279 21.9198L58.528 34.4306H66.3613V34.4266H67.489C67.9592 34.4313 68.3602 34.5233 68.4437 35.0277L68.443 35.4128L68.4437 35.4142V36.6223L68.4453 37.4281C68.3618 37.9325 67.9608 38.0245 67.4907 38.0291H66.3629V38.029H55.1397L55.1394 38.029H54.858C54.3878 38.0243 53.9869 37.9323 53.9033 37.428L53.9051 36.5413H53.9065L53.9054 21.9229C53.9054 21.2741 53.9544 21.1079 54.7443 21.1079H57.6332C58.418 21.1079 58.5279 21.2193 58.5279 21.9198Z" fill="white"/>
<path fill-rule="evenodd" clip-rule="evenodd" d="M88.7749 18.1909L79.9669 36.5927L79.9665 36.5932L79.5321 37.5294C79.3416 37.9388 78.9274 38.0551 78.5777 38.0418H78.2335L78.2307 38.0432H76.3966V38.0432H75.2691C74.9195 38.0566 74.5052 37.9403 74.3148 37.5309L74.3087 37.5178L66.5758 22.1489C66.1494 21.2586 66.7326 21.114 67.4161 21.1263H70.0843C70.739 21.1159 71.1439 21.1201 71.4102 21.8476L77.107 33.5796L83.7115 17.9185C84.0634 16.9645 84.4052 16.911 85.8496 16.9244H87.9917C89.2573 16.9244 89.2987 17.0964 88.7749 18.1909Z" fill="white"/>
</svg>
